<svg width="65" height="65" viewBox="0 0 65 65" fill="none" xmlns="http://www.w3.org/2000/svg">
<circle cx="33" cy="33" r="21" stroke="#E4E4E4" stroke-opacity="0.49776" stroke-width="6"/>
<circle opacity="0.5" cx="33" cy="33" r="32" fill="#E4E4E4"/>
<circle cx="33" cy="33" r="26" fill="white"/>
<path d="M33 4.19475C33 2.43034 34.4339 0.98348 36.1895 1.15934C40.2459 1.56567 44.1975 2.74448 47.8274 4.64251C51.4574 6.54055 54.6803 9.11307 57.3285 12.2124C58.4747 13.5538 58.1047 15.557 56.6557 16.5637V16.5637C55.2067 17.5705 53.2296 17.1958 52.0504 15.8834C50.0136 13.6164 47.5826 11.7247 44.8668 10.3047C42.151 8.88471 39.2104 7.9677 36.1865 7.58851C34.4358 7.36898 33 5.95917 33 4.19475V4.19475Z" fill="#808191"/>
<path d="M28.1338 29.7273H27.2531L25.2361 30.9347L25.0798 31.8295L27.0542 30.6506H27.0969L26.0457 37H26.9264L28.1338 29.7273ZM31.2765 37.0994C32.6686 37.0994 33.8476 36.0767 34.0748 34.6847C34.3163 33.2784 33.5067 32.2415 32.1714 32.2415C31.6743 32.2415 31.1771 32.4119 30.8362 32.6534H30.7936L31.4044 30.5085H34.4442L34.572 29.7273H30.7936L29.7567 33.3068L30.5663 33.4062C30.9072 33.1932 31.447 33.0369 31.8873 33.0369C32.8248 33.0369 33.3788 33.7472 33.2226 34.6989C33.0663 35.6364 32.2993 36.3182 31.4044 36.3182C30.6657 36.3182 30.1402 35.8352 30.1828 35.1818H29.3305C29.2027 36.2898 30.0265 37.0994 31.2765 37.0994ZM36.1105 31.4744C35.9685 32.2699 36.3662 32.9375 37.2895 32.9375C38.1986 32.9375 38.7952 32.2699 38.9372 31.4744L38.9941 31.0909C39.1219 30.2955 38.7526 29.6278 37.8293 29.6278C36.9202 29.6278 36.2952 30.2955 36.1673 31.0909L36.1105 31.4744ZM39.0367 35.6364C38.9088 36.4318 39.2923 37.0994 40.2156 37.0994C41.1247 37.0994 41.7355 36.4318 41.8634 35.6364L41.9344 35.2528C42.0622 34.4574 41.6929 33.7898 40.7696 33.7898C39.8605 33.7898 39.2355 34.4574 39.1077 35.2528L39.0367 35.6364ZM35.3648 37H36.2171L42.4244 29.7273H41.5722L35.3648 37ZM36.8918 31.0909C36.9628 30.6506 37.2327 30.2386 37.7298 30.2386C38.2412 30.2386 38.3406 30.6506 38.2696 31.0909L38.2128 31.4744C38.1276 31.9148 37.8861 32.3267 37.3889 32.3267C36.8776 32.3267 36.7497 31.9148 36.835 31.4744L36.8918 31.0909ZM39.8321 35.2528C39.9031 34.8125 40.173 34.4006 40.6702 34.4006C41.1816 34.4006 41.281 34.8125 41.21 35.2528L41.1389 35.6364C41.0679 36.0767 40.8122 36.4886 40.3151 36.4886C39.8037 36.4886 39.6901 36.0767 39.7611 35.6364L39.8321 35.2528Z" fill="#11142D"/>
</svg>
