<svg width="65" height="65" viewBox="0 0 65 65" fill="none" xmlns="http://www.w3.org/2000/svg">
<circle cx="33" cy="33" r="21" stroke="#E4E4E4" stroke-opacity="0.49776" stroke-width="6"/>
<circle opacity="0.5" cx="33" cy="33" r="32" fill="#E4E4E4"/>
<circle cx="33" cy="33" r="26" fill="white"/>
<path d="M33 4.19475C33 2.43034 34.4339 0.983466 36.1895 1.15931C41.8942 1.73072 47.3621 3.82724 52.006 7.25565C56.6499 10.6841 60.2636 15.2921 62.4896 20.5756C63.1746 22.2016 62.2142 23.998 60.528 24.5175V24.5175C58.8418 25.0371 57.0717 24.0801 56.3464 22.4716C54.5498 18.4878 51.7553 15.0127 48.211 12.3961C44.6667 9.77947 40.5228 8.13224 36.1866 7.5885C34.4359 7.36896 33 5.95917 33 4.19475V4.19475Z" fill="#808191"/>
<path d="M23.5835 37H28.1715L28.2994 36.2188H24.9187L24.9329 36.1619L26.8505 34.4148C28.3278 33.0795 28.7965 32.4545 28.9386 31.6449C29.1232 30.5227 28.3846 29.6278 27.1062 29.6278C25.8278 29.6278 24.6914 30.4943 24.4783 31.7727H25.3164C25.4585 30.9489 26.1119 30.3949 26.9499 30.3949C27.7454 30.3949 28.2425 30.8778 28.1147 31.6449C28.0011 32.3125 27.5181 32.8097 26.5238 33.733L23.6971 36.3608L23.5835 37ZM31.9961 37.0994C33.6012 37.0994 34.7518 35.7358 35.1495 33.3636C35.5437 31.0092 34.8228 29.6278 33.2319 29.6278C31.641 29.6278 30.4762 31.0057 30.0927 33.3636C29.7056 35.7393 30.391 37.0994 31.9961 37.0994ZM32.1239 36.3182C31.0728 36.3182 30.6325 35.2528 30.945 33.3636C31.2575 31.4744 32.0529 30.3949 33.104 30.3949C34.1552 30.3949 34.6097 31.4744 34.2972 33.3636C33.9847 35.2528 33.1893 36.3182 32.1239 36.3182ZM36.8967 31.4744C36.7546 32.2699 37.1523 32.9375 38.0756 32.9375C38.9847 32.9375 39.5813 32.2699 39.7234 31.4744L39.7802 31.0909C39.908 30.2955 39.5387 29.6278 38.6154 29.6278C37.7063 29.6278 37.0813 30.2955 36.9535 31.0909L36.8967 31.4744ZM39.8228 35.6364C39.695 36.4318 40.0785 37.0994 41.0018 37.0994C41.9109 37.0994 42.5217 36.4318 42.6495 35.6364L42.7205 35.2528C42.8484 34.4574 42.479 33.7898 41.5558 33.7898C40.6467 33.7898 40.0217 34.4574 39.8938 35.2528L39.8228 35.6364ZM36.1509 37H37.0032L43.2106 29.7273H42.3583L36.1509 37ZM37.6779 31.0909C37.7489 30.6506 38.0188 30.2386 38.516 30.2386C39.0273 30.2386 39.1268 30.6506 39.0558 31.0909L38.9989 31.4744C38.9137 31.9148 38.6722 32.3267 38.1751 32.3267C37.6637 32.3267 37.5359 31.9148 37.6211 31.4744L37.6779 31.0909ZM40.6183 35.2528C40.6893 34.8125 40.9592 34.4006 41.4563 34.4006C41.9677 34.4006 42.0671 34.8125 41.9961 35.2528L41.9251 35.6364C41.854 36.0767 41.5984 36.4886 41.1012 36.4886C40.5898 36.4886 40.4762 36.0767 40.5472 35.6364L40.6183 35.2528Z" fill="#11142D"/>
</svg>
