<svg width="65" height="65" viewBox="0 0 65 65" fill="none" xmlns="http://www.w3.org/2000/svg">
<circle cx="33" cy="33" r="21" stroke="#E4E4E4" stroke-opacity="0.49776" stroke-width="6"/>
<circle opacity="0.5" cx="33" cy="33" r="32" fill="#E4E4E4"/>
<circle cx="33" cy="33" r="26" fill="white"/>
<path d="M33 4.19475C33 2.43034 34.4338 0.983482 36.1895 1.15934C39.2976 1.47069 42.3493 2.23607 45.2459 3.43586C49.1283 5.04401 52.6559 7.40111 55.6274 10.3726C58.5989 13.3441 60.956 16.8717 62.5641 20.7541C63.7639 23.6507 64.5293 26.7024 64.8407 29.8105C65.0165 31.5662 63.5697 33 61.8052 33V33C60.0408 33 58.631 31.5642 58.4115 29.8135C58.127 27.5451 57.5395 25.3202 56.661 23.1993C55.374 20.0921 53.4875 17.2688 51.1094 14.8906C48.7312 12.5125 45.9079 10.626 42.8007 9.33899C40.6798 8.46046 38.4549 7.87296 36.1865 7.58852C34.4358 7.36898 33 5.95917 33 4.19475V4.19475Z" fill="#808191"/>
<path d="M23.5786 37H28.1666L28.2945 36.2188H24.9138L24.928 36.1619L26.8456 34.4148C28.3229 33.0795 28.7916 32.4545 28.9337 31.6449C29.1183 30.5227 28.3797 29.6278 27.1013 29.6278C25.8229 29.6278 24.6865 30.4943 24.4735 31.7727H25.3115C25.4536 30.9489 26.107 30.3949 26.945 30.3949C27.7405 30.3949 28.2377 30.8778 28.1098 31.6449C27.9962 32.3125 27.5132 32.8097 26.5189 33.733L23.6922 36.3608L23.5786 37ZM29.5622 35.5085H32.9749L32.7298 37H33.5679L33.8165 35.5085H34.8179L34.9458 34.7273H33.9443L34.7753 29.7273H33.71L29.6759 34.7841L29.5622 35.5085ZM33.1098 34.7273H30.6418V34.6705L33.6958 30.8494H33.7526L33.1098 34.7273ZM36.9015 31.4744C36.7595 32.2699 37.1572 32.9375 38.0805 32.9375C38.9896 32.9375 39.5862 32.2699 39.7282 31.4744L39.7851 31.0909C39.9129 30.2955 39.5436 29.6278 38.6203 29.6278C37.7112 29.6278 37.0862 30.2955 36.9584 31.0909L36.9015 31.4744ZM39.8277 35.6364C39.6998 36.4318 40.0834 37.0994 41.0067 37.0994C41.9157 37.0994 42.5265 36.4318 42.6544 35.6364L42.7254 35.2528C42.8532 34.4574 42.4839 33.7898 41.5606 33.7898C40.6515 33.7898 40.0265 34.4574 39.8987 35.2528L39.8277 35.6364ZM36.1558 37H37.0081L43.2155 29.7273H42.3632L36.1558 37ZM37.6828 31.0909C37.7538 30.6506 38.0237 30.2386 38.5209 30.2386C39.0322 30.2386 39.1317 30.6506 39.0606 31.0909L39.0038 31.4744C38.9186 31.9148 38.6771 32.3267 38.18 32.3267C37.6686 32.3267 37.5407 31.9148 37.626 31.4744L37.6828 31.0909ZM40.6231 35.2528C40.6942 34.8125 40.964 34.4006 41.4612 34.4006C41.9726 34.4006 42.072 34.8125 42.001 35.2528L41.93 35.6364C41.8589 36.0767 41.6032 36.4886 41.1061 36.4886C40.5947 36.4886 40.4811 36.0767 40.5521 35.6364L40.6231 35.2528Z" fill="#11142D"/>
</svg>
