<svg width="65" height="65" viewBox="0 0 65 65" fill="none" xmlns="http://www.w3.org/2000/svg">
<circle cx="33" cy="33" r="21" stroke="#E4E4E4" stroke-opacity="0.49776" stroke-width="6"/>
<circle opacity="0.5" cx="33" cy="33" r="32" fill="#E4E4E4"/>
<circle cx="33" cy="33" r="26" fill="white"/>
<path d="M33 4.19475C33 2.43034 34.4339 0.983478 36.1895 1.15934C40.4744 1.58856 44.64 2.87953 48.4317 4.96677C53.1589 7.56898 57.1513 11.3243 60.0376 15.8836C62.9238 20.4429 64.6103 25.658 64.9402 31.044C65.2047 35.3641 64.5896 39.6816 63.1445 43.7382C62.5524 45.4003 60.6312 46.0774 59.0364 45.3226V45.3226C57.4416 44.5678 56.7815 42.6669 57.332 40.9906C58.3401 37.9209 58.7613 34.6787 58.5626 31.4346C58.2986 27.124 56.9489 22.9502 54.6389 19.3013C52.3289 15.6524 49.1337 12.6468 45.3504 10.5642C42.5032 8.99685 39.3924 7.99052 36.1865 7.58851C34.4358 7.36898 33 5.95917 33 4.19475V4.19475Z" fill="#808191"/>
<path d="M25.913 37.0994C27.3441 37.0994 28.4521 36.3217 28.6545 35.0824C28.8072 34.1626 28.3846 33.4347 27.4897 33.2784V33.2358C28.2532 33.005 28.8249 32.4297 28.9528 31.6307C29.1232 30.5795 28.445 29.6278 27.0778 29.6278C25.842 29.6278 24.6985 30.4091 24.4783 31.5455H25.3306C25.4656 30.821 26.2646 30.3949 27.0352 30.3949C27.8342 30.3949 28.2319 30.8601 28.1147 31.5597C27.9833 32.3622 27.2731 32.8807 26.4102 32.8807H25.8562L25.7283 33.6619H26.3249C27.4364 33.6619 27.9158 34.2124 27.8022 34.9688C27.6744 35.8175 26.8434 36.3182 25.9272 36.3182C25.0678 36.3182 24.5423 35.8778 24.6062 35.1818H23.7255C23.5763 36.3324 24.489 37.0994 25.913 37.0994ZM32.1523 37.0994C33.7575 37.0994 34.908 35.7358 35.3058 33.3636C35.6999 31.0092 34.979 29.6278 33.3881 29.6278C31.7972 29.6278 30.6325 31.0057 30.2489 33.3636C29.8619 35.7393 30.5472 37.0994 32.1523 37.0994ZM32.2802 36.3182C31.229 36.3182 30.7887 35.2528 31.1012 33.3636C31.4137 31.4744 32.2092 30.3949 33.2603 30.3949C34.3114 30.3949 34.766 31.4744 34.4535 33.3636C34.141 35.2528 33.3455 36.3182 32.2802 36.3182ZM37.0529 31.4744C36.9109 32.2699 37.3086 32.9375 38.2319 32.9375C39.141 32.9375 39.7376 32.2699 39.8796 31.4744L39.9364 31.0909C40.0643 30.2955 39.695 29.6278 38.7717 29.6278C37.8626 29.6278 37.2376 30.2955 37.1097 31.0909L37.0529 31.4744ZM39.979 35.6364C39.8512 36.4318 40.2347 37.0994 41.158 37.0994C42.0671 37.0994 42.6779 36.4318 42.8058 35.6364L42.8768 35.2528C43.0046 34.4574 42.6353 33.7898 41.712 33.7898C40.8029 33.7898 40.1779 34.4574 40.0501 35.2528L39.979 35.6364ZM36.3072 37H37.1594L43.3668 29.7273H42.5146L36.3072 37ZM37.8342 31.0909C37.9052 30.6506 38.1751 30.2386 38.6722 30.2386C39.1836 30.2386 39.283 30.6506 39.212 31.0909L39.1552 31.4744C39.07 31.9148 38.8285 32.3267 38.3313 32.3267C37.82 32.3267 37.6921 31.9148 37.7773 31.4744L37.8342 31.0909ZM40.7745 35.2528C40.8455 34.8125 41.1154 34.4006 41.6126 34.4006C42.1239 34.4006 42.2234 34.8125 42.1523 35.2528L42.0813 35.6364C42.0103 36.0767 41.7546 36.4886 41.2575 36.4886C40.7461 36.4886 40.6325 36.0767 40.7035 35.6364L40.7745 35.2528Z" fill="#11142D"/>
</svg>
