<svg width="65" height="65" viewBox="0 0 65 65" fill="none" xmlns="http://www.w3.org/2000/svg">
<circle cx="33" cy="33" r="21" stroke="#E4E4E4" stroke-opacity="0.49776" stroke-width="6"/>
<circle opacity="0.5" cx="33" cy="33" r="32" fill="#E4E4E4"/>
<circle cx="33" cy="33" r="26" fill="white"/>
<path d="M33 4.19475C33 2.43034 34.4339 0.983466 36.1896 1.15931C42.1608 1.7574 47.8671 4.02592 52.639 7.73518C58.2548 12.1005 62.2562 18.2125 64.0109 25.1056C65.7657 31.9987 65.1738 39.2799 62.3289 45.7991C59.9115 51.3385 55.9844 56.0594 51.026 59.4398C49.5682 60.4337 47.6169 59.8486 46.7733 58.299V58.299C45.9296 56.7493 46.5166 54.8246 47.9492 53.7947C51.6712 51.1191 54.6237 47.4804 56.4727 43.2435C58.7496 38.026 59.2233 32.1986 57.8189 26.6819C56.4145 21.1651 53.2121 16.2736 48.7176 12.7799C45.0678 9.94275 40.7348 8.15881 36.1865 7.58848C34.4358 7.36896 33 5.95917 33 4.19475V4.19475Z" fill="#808191"/>
<path d="M23.488 35.5085H26.9007L26.6556 37H27.4937L27.7423 35.5085H28.7437L28.8715 34.7273H27.8701L28.7011 29.7273H27.6357L23.6017 34.7841L23.488 35.5085ZM27.0356 34.7273H24.5676V34.6705L27.6215 30.8494H27.6784L27.0356 34.7273ZM32.1768 37.0994C33.7819 37.0994 34.9324 35.7358 35.3302 33.3636C35.7243 31.0092 35.0035 29.6278 33.4126 29.6278C31.8216 29.6278 30.6569 31.0057 30.2733 33.3636C29.8863 35.7393 30.5716 37.0994 32.1768 37.0994ZM32.3046 36.3182C31.2535 36.3182 30.8131 35.2528 31.1256 33.3636C31.4381 31.4744 32.2336 30.3949 33.2847 30.3949C34.3358 30.3949 34.7904 31.4744 34.4779 33.3636C34.1654 35.2528 33.3699 36.3182 32.3046 36.3182ZM37.0773 31.4744C36.9353 32.2699 37.333 32.9375 38.2563 32.9375C39.1654 32.9375 39.762 32.2699 39.904 31.4744L39.9608 31.0909C40.0887 30.2955 39.7194 29.6278 38.7961 29.6278C37.887 29.6278 37.262 30.2955 37.1341 31.0909L37.0773 31.4744ZM40.0035 35.6364C39.8756 36.4318 40.2591 37.0994 41.1824 37.0994C42.0915 37.0994 42.7023 36.4318 42.8302 35.6364L42.9012 35.2528C43.029 34.4574 42.6597 33.7898 41.7364 33.7898C40.8273 33.7898 40.2023 34.4574 40.0745 35.2528L40.0035 35.6364ZM36.3316 37H37.1839L43.3912 29.7273H42.539L36.3316 37ZM37.8586 31.0909C37.9296 30.6506 38.1995 30.2386 38.6966 30.2386C39.208 30.2386 39.3074 30.6506 39.2364 31.0909L39.1796 31.4744C39.0944 31.9148 38.8529 32.3267 38.3557 32.3267C37.8444 32.3267 37.7165 31.9148 37.8018 31.4744L37.8586 31.0909ZM40.7989 35.2528C40.8699 34.8125 41.1398 34.4006 41.637 34.4006C42.1483 34.4006 42.2478 34.8125 42.1768 35.2528L42.1057 35.6364C42.0347 36.0767 41.779 36.4886 41.2819 36.4886C40.7705 36.4886 40.6569 36.0767 40.7279 35.6364L40.7989 35.2528Z" fill="#11142D"/>
</svg>
