<svg width="129" height="24" viewBox="0 0 129 24" fill="none" xmlns="http://www.w3.org/2000/svg">
<g clip-path="url(#clip0)">
<path d="M0 24C0 24 5.20364 15.2064 12 15.2064C18.7964 15.2064 18.0536 20.521 24.9941 20.521C31.9346 20.521 34.9412 0 44.8235 0C54.7059 0 56.8284 18.9549 65.1176 18.9549C71.5754 18.9549 73.227 12 78 12" stroke="#6C5DD3" stroke-width="2" stroke-linecap="round"/>
<circle cx="99" cy="12" r="8" fill="#3F8CFF"/>
<path d="M101.667 10.6667L98.9998 13.3333L96.3332 10.6667" stroke="white" stroke-width="2" stroke-linecap="round" stroke-linejoin="round"/>
<path d="M115.32 16.1193C117.144 16.1364 118.354 14.8239 118.35 13.1491C118.354 11.4787 117.14 10.2812 115.627 10.2812C114.706 10.2812 113.909 10.7244 113.462 11.4616H113.398C113.402 9.48011 114.152 8.30398 115.431 8.30398C116.27 8.30398 116.799 8.81534 116.978 9.53977H118.277C118.077 8.15909 116.99 7.15341 115.431 7.15341C113.402 7.15341 112.137 8.89631 112.137 11.9304C112.132 15.1435 113.769 16.1065 115.32 16.1193ZM115.316 15.0114C114.301 15.0114 113.56 14.1591 113.56 13.179C113.564 12.2031 114.34 11.3509 115.346 11.3509C116.343 11.3509 117.076 12.1562 117.071 13.1662C117.076 14.1974 116.313 15.0114 115.316 15.0114ZM124.457 14.3636C124.462 15.348 125.08 16.179 126.234 16.179C127.376 16.179 128.003 15.348 128.003 14.3636V13.9034C128.003 12.9148 127.393 12.0881 126.234 12.0881C125.097 12.0881 124.462 12.919 124.457 13.9034V14.3636ZM120.068 9.36932C120.068 10.3537 120.69 11.1847 121.845 11.1847C122.983 11.1847 123.614 10.358 123.609 9.36932V8.90909C123.614 7.92045 123 7.09375 121.845 7.09375C120.712 7.09375 120.068 7.92045 120.068 8.90909V9.36932ZM120.426 16H121.445L127.445 7.27273H126.426L120.426 16ZM125.45 13.9034C125.455 13.4134 125.668 12.9403 126.234 12.9403C126.822 12.9403 127.006 13.4134 127.006 13.9034V14.3636C127.006 14.8537 126.805 15.3267 126.234 15.3267C125.655 15.3267 125.455 14.8494 125.45 14.3636V13.9034ZM121.065 8.90909C121.065 8.4233 121.278 7.94602 121.845 7.94602C122.433 7.94602 122.616 8.41903 122.616 8.90909V9.36932C122.616 9.85938 122.416 10.3324 121.845 10.3324C121.266 10.3324 121.065 9.85938 121.065 9.36932V8.90909Z" fill="#5F75EE"/>
</g>
<defs>
<clipPath id="clip0">
<rect width="129" height="24" fill="white"/>
</clipPath>
</defs>
</svg>
