<svg width="16" height="16" viewBox="0 0 16 16" fill="none" xmlns="http://www.w3.org/2000/svg">
<rect width="16" height="16" rx="6" fill="#FFA2C0"/>
<path fill-rule="evenodd" clip-rule="evenodd" d="M9.72654 5.47002C9.72654 5.02669 10.0865 4.66669 10.5299 4.66669C10.9732 4.66669 11.3332 5.02669 11.3332 5.47002C11.3332 5.91335 10.9732 6.27335 10.5299 6.27335C10.0865 6.27335 9.72654 5.91335 9.72654 5.47002ZM8.44317 8.91978L9.4065 7.67678L9.39317 7.68345C9.4465 7.61011 9.4565 7.51678 9.41984 7.43345C9.3835 7.35011 9.30317 7.29345 9.21684 7.28678C9.1265 7.27678 9.03684 7.31678 8.98317 7.39011L8.17684 8.43345L7.25317 7.70678C7.1965 7.66345 7.12984 7.64645 7.06317 7.65345C6.99684 7.66345 6.93684 7.69978 6.8965 7.75311L5.91017 9.03678L5.88984 9.06678C5.83317 9.17311 5.85984 9.30978 5.95984 9.38345C6.0065 9.41345 6.0565 9.43345 6.11317 9.43345C6.19017 9.43678 6.26317 9.39645 6.30984 9.33345L7.1465 8.25645L8.0965 8.97011L8.1265 8.98978C8.23317 9.04645 8.3665 9.02011 8.44317 8.91978ZM9.14984 5.26012C9.1365 5.34345 9.12984 5.42678 9.12984 5.51012C9.12984 6.26012 9.73651 6.86645 10.4832 6.86645C10.5665 6.86645 10.6465 6.85678 10.7298 6.84345V9.53312C10.7298 10.6635 10.0632 11.3335 8.92984 11.3335H6.46684C5.33317 11.3335 4.6665 10.6635 4.6665 9.53312V7.06678C4.6665 5.93345 5.33317 5.26012 6.46684 5.26012H9.14984Z" fill="white"/>
</svg>
