<svg width="65" height="65" viewBox="0 0 65 65" fill="none" xmlns="http://www.w3.org/2000/svg">
<circle cx="33" cy="33" r="21" stroke="#E4E4E4" stroke-opacity="0.49776" stroke-width="6"/>
<circle opacity="0.5" cx="33" cy="33" r="32" fill="#E4E4E4"/>
<circle cx="33" cy="33" r="26" fill="white"/>
<path d="M33 4.19475C33 2.43034 34.4338 0.983482 36.1895 1.15934C39.2976 1.47069 42.3493 2.23607 45.2459 3.43586C49.1283 5.04401 52.6559 7.40111 55.6274 10.3726C58.5989 13.3441 60.956 16.8717 62.5641 20.7541C63.7639 23.6507 64.5293 26.7024 64.8407 29.8105C65.0165 31.5662 63.5697 33 61.8052 33V33C60.0408 33 58.631 31.5642 58.4115 29.8135C58.127 27.5451 57.5395 25.3202 56.661 23.1993C55.374 20.0921 53.4875 17.2688 51.1094 14.8906C48.7312 12.5125 45.9079 10.626 42.8007 9.33899C40.6798 8.46046 38.4549 7.87296 36.1865 7.58852C34.4358 7.36898 33 5.95917 33 4.19475V4.19475Z" fill="#6C5DD3"/>
<path d="M23.6274 37H28.2155L28.3433 36.2188H24.9626L24.9768 36.1619L26.8944 34.4148C28.3717 33.0795 28.8405 32.4545 28.9825 31.6449C29.1672 30.5227 28.4285 29.6278 27.1501 29.6278C25.8717 29.6278 24.7354 30.4943 24.5223 31.7727H25.3604C25.5024 30.9489 26.1558 30.3949 26.9939 30.3949C27.7893 30.3949 28.2865 30.8778 28.1586 31.6449C28.045 32.3125 27.5621 32.8097 26.5677 33.733L23.741 36.3608L23.6274 37ZM32.0542 37.0994C33.4711 37.0994 34.6004 36.2862 34.7957 35.125C34.9555 34.1839 34.4406 33.3778 33.6736 33.2216V33.1932C34.3696 33.0227 34.9697 32.4261 35.1082 31.6165C35.3 30.4801 34.469 29.6278 33.1764 29.6278C31.9264 29.6278 30.9285 30.4055 30.719 31.5028C30.5663 32.2983 30.8753 33.0085 31.5429 33.1932V33.2216C30.7332 33.3636 30.0159 34.1165 29.8667 35.0114C29.6679 36.1974 30.5592 37.0994 32.0542 37.0994ZM32.0827 36.3182C31.1203 36.3182 30.6125 35.8459 30.7332 35.0824C30.8682 34.2301 31.6707 33.6193 32.6224 33.6193C33.5173 33.6193 34.0855 34.1591 33.9577 34.9688C33.8298 35.7784 33.1089 36.3182 32.0827 36.3182ZM32.6508 32.8665C31.8944 32.8665 31.4221 32.419 31.5429 31.6733C31.6672 30.9062 32.3028 30.3949 33.1622 30.3949C33.9541 30.3949 34.4015 30.821 34.2702 31.5597C34.1352 32.3303 33.4818 32.8665 32.6508 32.8665ZM36.8527 31.4744C36.7107 32.2699 37.1084 32.9375 38.0317 32.9375C38.9408 32.9375 39.5374 32.2699 39.6794 31.4744L39.7362 31.0909C39.8641 30.2955 39.4948 29.6278 38.5715 29.6278C37.6624 29.6278 37.0374 30.2955 36.9095 31.0909L36.8527 31.4744ZM39.7789 35.6364C39.651 36.4318 40.0345 37.0994 40.9578 37.0994C41.8669 37.0994 42.4777 36.4318 42.6056 35.6364L42.6766 35.2528C42.8044 34.4574 42.4351 33.7898 41.5118 33.7898C40.6027 33.7898 39.9777 34.4574 39.8499 35.2528L39.7789 35.6364ZM36.107 37H36.9593L43.1666 29.7273H42.3144L36.107 37ZM37.634 31.0909C37.705 30.6506 37.9749 30.2386 38.472 30.2386C38.9834 30.2386 39.0828 30.6506 39.0118 31.0909L38.955 31.4744C38.8698 31.9148 38.6283 32.3267 38.1311 32.3267C37.6198 32.3267 37.4919 31.9148 37.5771 31.4744L37.634 31.0909ZM40.5743 35.2528C40.6453 34.8125 40.9152 34.4006 41.4124 34.4006C41.9237 34.4006 42.0232 34.8125 41.9521 35.2528L41.8811 35.6364C41.8101 36.0767 41.5544 36.4886 41.0573 36.4886C40.5459 36.4886 40.4323 36.0767 40.5033 35.6364L40.5743 35.2528Z" fill="#11142D"/>
</svg>
