<svg width="65" height="65" viewBox="0 0 65 65" fill="none" xmlns="http://www.w3.org/2000/svg">
<circle cx="33" cy="33" r="21" stroke="#E4E4E4" stroke-opacity="0.49776" stroke-width="6"/>
<circle opacity="0.5" cx="33" cy="33" r="32" fill="#E4E4E4"/>
<circle cx="33" cy="33" r="26" fill="white"/>
<path d="M33 4.19475C33 2.43034 34.4338 0.983482 36.1895 1.15934C39.2976 1.47069 42.3493 2.23607 45.2459 3.43586C49.1283 5.04401 52.6559 7.40111 55.6274 10.3726C58.5989 13.3441 60.956 16.8717 62.5641 20.7541C63.7639 23.6507 64.5293 26.7024 64.8407 29.8105C65.0165 31.5662 63.5697 33 61.8052 33C60.0408 33 58.631 31.5642 58.4115 29.8135C58.127 27.5451 57.5395 25.3202 56.661 23.1993C55.374 20.0921 53.4875 17.2688 51.1094 14.8906C48.7312 12.5125 45.9079 10.626 42.8007 9.33899C40.6798 8.46046 38.4549 7.87296 36.1865 7.58852C34.4358 7.36898 33 5.95917 33 4.19475Z" fill="#6C5DD3"/>
<path d="M20.8887 35.2955H25.0265V37H26.2836V35.2955H27.4384V34.179H26.2836V28.2727H24.66L20.8887 34.2301V35.2955ZM25.035 34.179H22.2694V34.1108L24.9668 29.8409H25.035V34.179ZM31.9618 37.1449C33.9775 37.1449 35.1578 35.5 35.1578 32.6406C35.1578 29.8026 33.9604 28.1534 31.9618 28.1534C29.959 28.1534 28.7658 29.7983 28.7615 32.6406C28.7615 35.4957 29.9419 37.1406 31.9618 37.1449ZM31.9618 36.0071C30.7814 36.0071 30.0698 34.8224 30.0698 32.6406C30.074 30.4673 30.7857 29.2699 31.9618 29.2699C33.1337 29.2699 33.8496 30.4673 33.8496 32.6406C33.8496 34.8224 33.138 36.0071 31.9618 36.0071ZM41.225 35.3636C41.2292 36.348 41.8471 37.179 43.002 37.179C44.144 37.179 44.7704 36.348 44.7704 35.3636V34.9034C44.7704 33.9148 44.161 33.0881 43.002 33.0881C41.8642 33.0881 41.2292 33.919 41.225 34.9034V35.3636ZM36.8358 30.3693C36.8358 31.3537 37.4579 32.1847 38.6127 32.1847C39.7505 32.1847 40.3812 31.358 40.377 30.3693V29.9091C40.3812 28.9205 39.7676 28.0938 38.6127 28.0938C37.4792 28.0938 36.8358 28.9205 36.8358 29.9091V30.3693ZM37.1937 37H38.2122L44.2122 28.2727H43.1937L37.1937 37ZM42.2179 34.9034C42.2221 34.4134 42.4352 33.9403 43.002 33.9403C43.59 33.9403 43.7733 34.4134 43.7733 34.9034V35.3636C43.7733 35.8537 43.573 36.3267 43.002 36.3267C42.4224 36.3267 42.2221 35.8494 42.2179 35.3636V34.9034ZM37.8329 29.9091C37.8329 29.4233 38.046 28.946 38.6127 28.946C39.2008 28.946 39.3841 29.419 39.3841 29.9091V30.3693C39.3841 30.8594 39.1838 31.3324 38.6127 31.3324C38.0332 31.3324 37.8329 30.8594 37.8329 30.3693V29.9091Z" fill="#11142D"/>
</svg>
