<svg width="16" height="16" viewBox="0 0 16 16" fill="none" xmlns="http://www.w3.org/2000/svg">
<rect width="16" height="16" rx="6" fill="#FF9A7B"/>
<path fill-rule="evenodd" clip-rule="evenodd" d="M8.00033 4.66669C8.88333 4.66669 9.73333 5.01669 10.3567 5.64335C10.9833 6.27035 11.3337 7.11669 11.3337 8.00335C11.3337 9.17002 10.72 10.2534 9.71999 10.8567C8.71999 11.46 7.47666 11.4934 6.44366 10.9434H6.43333C6.37627 10.9205 6.32555 10.8877 6.2751 10.8552C6.23742 10.8309 6.1999 10.8066 6.15999 10.7867C6.05699 10.7434 5.93999 10.7367 5.83366 10.7704C5.58666 10.8567 5.33666 10.9267 5.07999 10.9867C4.94666 10.99 4.90666 10.91 4.90666 10.78C4.96666 10.5167 5.04666 10.2564 5.14033 10.0034C5.17666 9.89335 5.16699 9.77669 5.11033 9.67302L5.04366 9.54335C4.79666 9.07335 4.66699 8.55002 4.66699 8.02035V8.00002C4.66699 7.11669 5.01666 6.26669 5.64333 5.64335C6.26999 5.01669 7.11666 4.66669 8.00033 4.66669ZM6.46332 8.43001C6.22665 8.43001 6.03665 8.23668 6.03665 8.00335C6.03665 7.76668 6.22665 7.57668 6.46332 7.57668C6.69665 7.57668 6.89032 7.76668 6.89032 8.00335C6.89032 8.23668 6.69665 8.43001 6.46332 8.43001ZM7.57333 8.00335C7.57333 8.23668 7.76366 8.43001 8.00033 8.43001C8.237 8.43001 8.42666 8.23668 8.42666 8.00335C8.42666 7.76668 8.237 7.57668 8.00033 7.57668C7.76366 7.57668 7.57333 7.76668 7.57333 8.00335ZM9.11033 8.00335C9.11033 8.23668 9.30333 8.43001 9.53667 8.43001C9.77333 8.43001 9.96333 8.23668 9.96333 8.00335C9.96333 7.76668 9.77333 7.57668 9.53667 7.57668C9.30333 7.57668 9.11033 7.76668 9.11033 8.00335Z" fill="white"/>
</svg>
