<svg width="65" height="65" viewBox="0 0 65 65" fill="none" xmlns="http://www.w3.org/2000/svg">
<circle cx="33" cy="33" r="21" stroke="#E4E4E4" stroke-opacity="0.49776" stroke-width="6"/>
<circle opacity="0.5" cx="33" cy="33" r="32" fill="#E4E4E4"/>
<circle cx="33" cy="33" r="26" fill="white"/>
<path d="M33 4.19475C33 2.43034 34.4339 0.983466 36.1895 1.15931C40.991 1.64024 45.6226 3.20136 49.7356 5.72505C51.2394 6.64782 51.505 8.66749 50.4369 10.0719V10.0719C49.3688 11.4763 47.3725 11.7293 45.8461 10.8443C42.8772 9.12286 39.5918 8.01549 36.1866 7.58849C34.4359 7.36896 33 5.95917 33 4.19475V4.19475Z" fill="#FF754C"/>
<path d="M19.2709 34.4432L23.4612 36.7727L23.6175 35.8636L20.4108 34.1911L20.4179 34.1342L24.1856 32.4545L24.3277 31.5455L19.3703 33.875L19.2709 34.4432ZM27.5459 37.0994C29.151 37.0994 30.3016 35.7358 30.6993 33.3636C31.0935 31.0092 30.3726 29.6278 28.7817 29.6278C27.1908 29.6278 26.026 31.0057 25.6425 33.3636C25.2554 35.7393 25.9408 37.0994 27.5459 37.0994ZM27.6737 36.3182C26.6226 36.3182 26.1823 35.2528 26.4948 33.3636C26.8073 31.4744 27.6027 30.3949 28.6539 30.3949C29.705 30.3949 30.1595 31.4744 29.847 33.3636C29.5345 35.2528 28.7391 36.3182 27.6737 36.3182ZM31.9085 37.0568C32.2565 37.0568 32.5406 36.7727 32.5477 36.4176C32.5548 36.0767 32.2565 35.7926 31.9085 35.7926C31.5605 35.7926 31.2622 36.0625 31.2693 36.4176C31.2764 36.7727 31.5463 37.0568 31.9085 37.0568ZM36.05 37.0994C37.442 37.0994 38.621 36.0767 38.8483 34.6847C39.0898 33.2784 38.2801 32.2415 36.9449 32.2415C36.4477 32.2415 35.9506 32.4119 35.6096 32.6534H35.567L36.1778 30.5085H39.2176L39.3454 29.7273H35.567L34.5301 33.3068L35.3398 33.4062C35.6807 33.1932 36.2204 33.0369 36.6608 33.0369C37.5983 33.0369 38.1523 33.7472 37.996 34.6989C37.8398 35.6364 37.0727 36.3182 36.1778 36.3182C35.4392 36.3182 34.9136 35.8352 34.9562 35.1818H34.104C33.9761 36.2898 34.8 37.0994 36.05 37.0994ZM40.884 31.4744C40.7419 32.2699 41.1396 32.9375 42.0629 32.9375C42.972 32.9375 43.5686 32.2699 43.7107 31.4744L43.7675 31.0909C43.8953 30.2955 43.526 29.6278 42.6027 29.6278C41.6936 29.6278 41.0686 30.2955 40.9408 31.0909L40.884 31.4744ZM43.8101 35.6364C43.6823 36.4318 44.0658 37.0994 44.9891 37.0994C45.8982 37.0994 46.509 36.4318 46.6368 35.6364L46.7078 35.2528C46.8357 34.4574 46.4664 33.7898 45.5431 33.7898C44.634 33.7898 44.009 34.4574 43.8811 35.2528L43.8101 35.6364ZM40.1382 37H40.9905L47.1979 29.7273H46.3456L40.1382 37ZM41.6652 31.0909C41.7362 30.6506 42.0061 30.2386 42.5033 30.2386C43.0146 30.2386 43.1141 30.6506 43.0431 31.0909L42.9862 31.4744C42.901 31.9148 42.6595 32.3267 42.1624 32.3267C41.651 32.3267 41.5232 31.9148 41.6084 31.4744L41.6652 31.0909ZM44.6056 35.2528C44.6766 34.8125 44.9465 34.4006 45.4436 34.4006C45.955 34.4006 46.0544 34.8125 45.9834 35.2528L45.9124 35.6364C45.8414 36.0767 45.5857 36.4886 45.0885 36.4886C44.5771 36.4886 44.4635 36.0767 44.5345 35.6364L44.6056 35.2528Z" fill="#11142D"/>
</svg>
