<svg width="16" height="16" viewBox="0 0 16 16" fill="none" xmlns="http://www.w3.org/2000/svg">
<rect width="16" height="16" rx="6" fill="#3F8CFF"/>
<path fill-rule="evenodd" clip-rule="evenodd" d="M10.7144 7.50419L10.971 9.50085C11.1614 10.8042 10.4044 11.3342 9.38769 11.3342H6.62435C5.60469 11.3342 4.82435 10.9675 5.03435 9.50085L5.29435 7.50419C5.33435 7.20752 5.47769 6.93085 5.70102 6.72752C5.87135 6.57785 6.09102 6.49752 6.31769 6.49752V6.42085C6.29102 5.80419 6.60802 5.22085 7.14102 4.90419C7.67435 4.58752 8.34102 4.58752 8.87435 4.90419C9.40769 5.22085 9.72102 5.80419 9.69769 6.42085V6.49752C10.1177 6.49752 10.561 6.79085 10.7144 7.50419ZM6.82435 6.42086C6.82435 5.77419 7.35102 5.24753 8.00102 5.24753C8.65435 5.24753 9.18102 5.77419 9.18102 6.42086V6.49452H6.82435V6.42086ZM6.73435 7.86419C6.73435 8.02419 6.86768 8.15752 7.03101 8.15752C7.19435 8.15752 7.32435 8.02419 7.32435 7.86419C7.32435 7.70086 7.19435 7.57086 7.03101 7.57086C6.86768 7.57086 6.73435 7.70086 6.73435 7.86419ZM8.96435 8.15752C9.04102 8.15752 9.11769 8.12752 9.17102 8.07086C9.22769 8.01752 9.25769 7.94086 9.25769 7.86419C9.25769 7.70086 9.12435 7.57086 8.96435 7.57086C8.80135 7.57086 8.66769 7.70086 8.66769 7.86419C8.66769 8.02419 8.80135 8.15752 8.96435 8.15752Z" fill="white"/>
</svg>
