<svg width="16" height="16" viewBox="0 0 16 16" fill="none" xmlns="http://www.w3.org/2000/svg">
<rect width="16" height="16" rx="6" fill="#6C5DD3"/>
<path fill-rule="evenodd" clip-rule="evenodd" d="M8.48341 5.62668H9.50675C10.7367 5.62668 11.3367 6.28335 11.3334 7.63002V9.25335C11.3334 10.54 10.5401 11.3333 9.25008 11.3333H6.74675C5.46341 11.3333 4.66675 10.54 4.66675 9.25002V6.74668C4.66675 5.36668 5.28008 4.66668 6.49008 4.66668H7.01675C7.32708 4.66335 7.61675 4.80668 7.80675 5.05002L8.10008 5.44002C8.19341 5.55668 8.33341 5.62668 8.48341 5.62668ZM6.45675 9.09667H9.54342C9.68008 9.09667 9.79008 8.98334 9.79008 8.84667C9.79008 8.70667 9.68008 8.59667 9.54342 8.59667H6.45675C6.31675 8.59667 6.20675 8.70667 6.20675 8.84667C6.20675 8.98334 6.31675 9.09667 6.45675 9.09667Z" fill="white"/>
</svg>
